<svg width="137" height="73" viewBox="0 0 137 73" fill="none" xmlns="http://www.w3.org/2000/svg">
<path d="M114.386 21.0035C127.018 27.2787 135.41 39.0462 136.993 53.6554C137.097 54.6124 136.019 55.1576 135.445 54.4326C133.316 51.7242 131.054 49.6885 128.578 48.8011C127.998 48.5924 127.4 49.0679 127.406 49.7407C127.453 58.098 124.286 63.161 119.171 66.2233C118.452 66.6524 117.634 65.8985 117.901 65.0401C120.609 56.2885 118.707 47.299 114.067 38.1704C113.719 37.4861 114.2 36.6567 114.908 36.7031C116.103 36.7785 117.292 37.2251 118.486 38.037C119.119 38.4662 119.93 37.8688 119.82 37.0511C119.101 31.7328 116.422 26.8959 113.33 22.5114C112.762 21.7053 113.551 20.5859 114.392 21.0035H114.386Z" fill="#C1C1C8"/>
<path d="M69.5604 16.6133C69.9838 4.95604 75.447 -1.53376 87.1217 0.310528C87.3131 0.339526 87.4929 0.438122 87.6263 0.588912C88.1192 1.13408 87.8815 2.06782 87.2029 2.24761C79.5822 4.30648 75.2209 7.60647 71.8629 16.3755C71.8165 16.4915 71.7585 16.5959 71.6773 16.6829L71.0741 17.3557C70.5 17.9936 69.5198 17.5122 69.5546 16.6075L69.5604 16.6133Z" fill="#C1C1C8"/>
<path d="M63.9939 42.1194C66.2441 41.4582 70.5823 41.348 72.9021 42.0498C73.3661 42.189 73.6329 42.7342 73.5053 43.2503L73.2385 44.3523C73.1805 44.5842 73.0529 44.7872 72.8731 44.9206C72.1424 45.4484 70.1415 46.7881 68.5002 46.7881C66.8589 46.7881 64.7478 45.5122 63.8663 44.9496C63.6169 44.7872 63.4545 44.5031 63.4255 44.1841L63.3443 43.1575C63.3037 42.682 63.5763 42.2354 63.9939 42.1136V42.1194Z" fill="#C1C1C8"/>
<path d="M104.66 26.9425C107.143 27.8646 109.526 29.0942 111.817 30.6427C112.612 31.1762 113.517 30.2019 113.058 29.3029C103.054 9.99016 87.6559 11.2371 80.1222 13.2901C77.1528 14.1021 74.6184 16.306 73.296 19.3682C70.7906 25.1736 70.141 31.5358 71.3474 38.4548C71.4344 38.9535 71.8577 39.2899 72.3101 39.2435C78.7303 38.5882 84.2284 39.3885 89.1464 41.1168C90.0976 41.4532 89.883 43.0307 88.8855 43.0423C86.0958 43.0713 83.4512 43.3207 81.0328 43.9064C80.1338 44.1268 80.0758 45.5071 80.9516 45.8145C90.4282 49.1377 94.0065 57.3906 95.8334 67.1108C95.9204 67.5805 96.2974 67.9227 96.7266 67.8995C99.8874 67.7545 106.615 69.9874 109.265 72.226C109.689 72.5856 110.304 72.429 110.576 71.9245C112.96 67.5457 114.775 63.1032 115.343 58.5099C115.343 58.4751 115.349 58.4345 115.355 58.3997C116.109 42.5145 108.68 33.0727 103.814 28.6418C103.048 27.9458 103.733 26.5945 104.666 26.9425H104.66ZM82.2681 38.0372C81.056 37.8342 79.7916 37.7182 78.4751 37.695C78.1793 37.695 77.901 37.5326 77.7386 37.2542C77.1064 36.1523 76.973 34.6328 77.756 33.0437C77.8082 32.9451 77.872 32.8465 77.9473 32.7711C80.4064 30.2657 83.5556 31.9592 83.8688 34.8068C83.9906 35.9087 83.6658 36.9527 83.051 37.7182C82.8538 37.9676 82.5523 38.0778 82.2565 38.0314L82.2681 38.0372Z" fill="#C1C1C8"/>
<path d="M22.614 21.0035C9.98242 27.2787 1.59036 39.0462 0.00706062 53.6554C-0.0973328 54.6124 0.981398 55.1576 1.55556 54.4326C3.68403 51.7242 5.94588 49.6885 8.42233 48.8011C9.00229 48.5924 9.59966 49.0679 9.59386 49.7407C9.54746 58.098 12.7141 63.161 17.8293 66.2233C18.5485 66.6524 19.3662 65.8985 19.0995 65.0401C16.391 56.2885 18.2933 47.299 22.933 38.1704C23.281 37.4861 22.7996 36.6567 22.0921 36.7031C20.8973 36.7785 19.7084 37.2251 18.5137 38.037C17.8815 38.4662 17.0696 37.8688 17.1798 37.0511C17.8989 31.7328 20.5784 26.8959 23.6696 22.5114C24.2379 21.7053 23.4492 20.5859 22.6082 21.0035H22.614Z" fill="#C1C1C8"/>
<path d="M67.4385 16.6133C67.0152 4.95604 61.5519 -1.53376 49.8772 0.310528C49.6859 0.339526 49.5061 0.438122 49.3727 0.588912C48.8797 1.13408 49.1175 2.06782 49.7961 2.24761C57.4168 4.30648 61.7781 7.60647 65.1361 16.3755C65.1825 16.4915 65.2405 16.5959 65.3217 16.6829L65.9248 17.3557C66.499 17.9936 67.4791 17.5122 67.4443 16.6075L67.4385 16.6133Z" fill="#C1C1C8"/>
<path d="M56.8798 13.2937C49.3461 11.2348 33.948 9.98789 23.9437 29.3065C23.4797 30.1996 24.3902 31.1798 25.1848 30.6462C27.4698 29.1035 29.8535 27.8682 32.3415 26.946C33.2811 26.5981 33.9596 27.9494 33.1941 28.6453C28.3282 33.082 20.8989 42.518 21.6528 58.4032C21.6528 58.438 21.6528 58.4786 21.6644 58.5134C22.2212 63.043 23.9959 67.4275 26.3273 71.7424C26.6173 72.2818 27.29 72.421 27.7076 71.9918C30.0565 69.5965 36.8363 67.6827 40.2754 67.9031C40.7104 67.9321 41.0874 67.5841 41.1744 67.1143C43.0013 57.3941 46.5796 49.1412 56.0562 45.818C56.932 45.5107 56.874 44.1304 55.9751 43.91C53.5624 43.3184 50.9178 43.0748 48.1223 43.0458C47.1248 43.0342 46.9102 41.4567 47.8614 41.1203C52.7736 39.3921 58.2775 38.5917 64.6977 39.2471C65.1501 39.2935 65.5734 38.9571 65.6604 38.4583C66.8668 31.5393 66.2172 25.1771 63.7118 19.3717C62.3894 16.3037 59.855 14.1056 56.8856 13.2937H56.8798ZM59.2344 33.0472C60.0174 34.6363 59.884 36.1559 59.2518 37.2578C59.0953 37.5362 58.8111 37.6928 58.5153 37.6986C57.1988 37.716 55.9403 37.8377 54.7223 38.0407C54.4265 38.0929 54.125 37.9769 53.9278 37.7276C53.313 36.962 52.9882 35.9123 53.11 34.8161C53.4232 31.9685 56.5724 30.2692 59.0315 32.7747C59.1068 32.8501 59.1765 32.9486 59.2229 33.0472H59.2344Z" fill="#C1C1C8"/>
<path d="M73.5536 50.9573C71.1003 50.7253 68.6181 50.6035 66.1068 50.6035C62.9402 50.6035 59.8142 50.7949 56.7346 51.1661C56.2707 51.2241 55.9227 51.6765 55.9401 52.1926C56.0619 55.945 56.7636 57.4819 60.3594 57.4819C62.2037 57.4819 65.5849 53.7469 66.4084 52.8016C66.5302 52.6624 66.6868 52.5638 66.855 52.5232C68.5079 52.1404 70.8161 51.9664 72.6604 51.8794C73.0142 51.862 73.3274 51.6127 73.4492 51.2415L73.5478 50.9573H73.5536Z" fill="#C1C1C8"/>
</svg>
