<?xml version="1.0" encoding="UTF-8"?>
<svg id="Layer_1" data-name="Layer 1" xmlns="http://www.w3.org/2000/svg" viewBox="0 0 1004 310">
  <defs>
    <style>
      .cls-1 {
        fill: #5900cc;
      }
    </style>
  </defs>
  <path class="cls-1" d="M373.75,100.15l-6.95.52c-19.2,15.34-58.34,38.2-84.46,46.27-.39,3.14,6.83,23.99,7.05,34.04-6.83,7.1-19.19,13.32-28.61,15.78l3.15,9.66,96.85-4.37c-3.73-16.4-9.8-32.11-18.71-46.97l21.7-3.17c8.31-16.95,13.62-34.09,9.99-51.76Z"/>
  <path class="cls-1" d="M649.02,203.94v-66.39c0-7.05.13-12.82.4-17.16.25-4.2.93-7.5,2.01-9.81,1-2.15,2.66-3.64,5.07-4.56,2.59-.99,6.32-1.61,11.06-1.84,4.93-.24,11.3-.36,18.92-.36h40.23v47.22h-37.33c-2.28,0-3.24.22-3.81.86-.51.57-.69,1.49-.69,3.5v3.46h41.84v14.54h-37.33c-2.28,0-3.24.22-3.81.86-.51.58-.69,1.5-.69,3.5v2.7h41.84v23.47h-77.69Z"/>
  <path class="cls-1" d="M592.25,203.94c-7.69,0-14.05-.12-18.92-.36-4.75-.23-8.47-.85-11.06-1.85-2.41-.92-4.06-2.41-5.07-4.56-1.08-2.3-1.76-5.63-2.01-9.88-.24-4.01-.4-11.69-.4-19.56v-30.19c0-7.05.13-12.82.4-17.16.25-4.2.93-7.5,2.01-9.81,1-2.15,2.66-3.64,5.07-4.56,2.59-.99,6.32-1.61,11.06-1.84,4.93-.24,11.3-.36,18.92-.36h20.66c8.45,0,22.84.41,25.27,1.03,2.46.63,4.18,1.72,5.25,3.34,1.13,1.7,1.85,4.34,2.14,7.86.29,3.43.45,7.98.47,13.56h-52.91v52.91c0,2.05.24,3.03.89,3.62.51.47,1.3.74,3.78.74h3.25v-52.92c24.94.71,44.99,19.1,44.99,41.62v28.37h-53.79Z"/>
  <path class="cls-1" d="M506.83,202.42v-23.02c0-4.58-4.04-8.3-9.02-8.3h-1.5v31.31h-35.49v-98.6h76.79c7.39,0,13.45,6.01,13.5,13.4l.18,25.15c.03,3.62-1.36,7.04-3.92,9.61s-5.96,3.99-9.58,3.99h-3.69c-1.57,0-2.93.9-3.46,2.3-.5,1.32-.13,2.73.96,3.69l.27.24c12,10.53,19.08,25.15,19.51,40.22h-44.56ZM496.31,149.09h10.52v-8.51c0-4.58-4.04-8.3-9.02-8.3h-1.5v16.81Z"/>
  <path class="cls-1" d="M435.78,103.81c-21.23,0-36.85,4.44-47.75,13.58-10.08,8.45-16.51,20.97-20.22,39.36,0,0-3.62,21.02-4.77,28.04-.59,3.62-1.03,6.34-1.36,8.72.72,2.6,1.41,5.22,2.01,7.88l.23,1.03h39.22c.79-5.01,4.08-18.8,4.6-21.2.57-2.62.97-4.41,2.63-6.08,1.9-1.91,4.6-3,7.42-3h1.48l.48,30.27h37.66v-98.6h-21.64ZM419.78,149.44h-11.46l.02-7.44c.02-5.45,4.46-9.97,9.91-10.07l1.53-.03v17.54Z"/>
</svg>