<svg viewBox="75.64 73.16 160.58 164.92000000000002" xmlns="http://www.w3.org/2000/svg" data-name="Layer 1" id="Layer_1" style="max-height: 500px" width="160.58" height="164.92000000000002">
  <defs>
    <style>
      .cls-1 {
        fill: #5900cc;
      }
    </style>
  </defs>
  <path d="M91.72,164.03c13.38,2.43,42.96-.72,55.97-6.16,6.06-.62,56.98-24.38,72.29-45.68l-9.54-2.18c-3.72-.85-6.88-3.25-8.77-6.56-12.92-22.62-35.7-30.07-68.6-18.25-35.59,12.78-44.17,36.44-39.61,58.49.86,4.13.92,8.39,0,12.51l-1.74,7.83Z" class="cls-1"/>
  <path d="M100.48,168.16c-10.68,18.69-17.73,33.36-20.95,43.83,3.99,12.09,29.5,9.63,40.67,5.65,6.1-2.17,16.5-7.52,22.86-17.12-.43-10.86-.9-19.29-3.01-30.64-14.24,2.21-28.02,2.95-39.56-1.73Z" class="cls-1"/>
  <path d="M205.23,187.6c-17.09.54-49.5-12.85-56.23-21.42-3.1,1.38-6.1,2.63-8.96,3.7-.2,3.16,8.24,23.55,9.06,33.56-4.37,10.66-16.03,18.07-27.62,17.45l3.72,9.46,96.42-10.13c-3.3-11.34-7.74-22.28-13.47-32.74-.87.07-1.84.11-2.92.11Z" class="cls-1"/>
  <path d="M228.51,117.74l-11.06,1.5c-12.7,15.56-42.03,34.8-66.27,45.96,12.92,8.59,27.24,15.63,52.54,14.7-1.14-1.83-2.33-3.65-3.56-5.45l21.47-4.46c7.29-17.42,11.57-34.84,6.89-52.26Z" class="cls-1"/>
</svg>