<svg viewBox="238.952 70.22653721682848 514.048 165.53398058252426" xmlns="http://www.w3.org/2000/svg" data-name="Layer 1" id="Layer_1" style="max-height: 500px" width="514.048" height="165.53398058252426">
  <defs>
    <style>
      .cls-1 {
        fill: #5900cc;
      }
    </style>
  </defs>
  <path d="M455.21,119.63c-21.23,0-36.85,4.44-47.75,13.58-10.08,8.45-16.51,20.97-20.22,39.36l-4.77,28.04c1.99,5,3.77,10.13,5.3,15.38l.65,2.25h34.16c.79-5.01,4.03-18.81,4.6-21.2.04-2.26.97-4.41,2.63-6.08,1.9-1.91,4.6-3,7.42-3h1.48l.48,30.27h36.53l1.13-98.6h-21.64ZM439.2,165.26h-11.46l.02-7.44c.02-5.45,4.46-9.97,9.91-10.07l1.53-.03v17.54Z" class="cls-1"/>
  <path d="M368.49,184.2c-17.09.54-49.5-12.85-56.23-21.42-3.1,1.38-6.1,2.63-8.96,3.7-.2,3.16,8.24,23.55,9.06,33.56-4.37,10.66-16.03,18.07-27.62,17.45l3.72,9.46,96.42-10.13c-3.3-11.34-7.74-22.27-13.47-32.74-.87.07-1.84.11-2.92.11Z" class="cls-1"/>
  <path d="M391.77,114.33l-11.07,1.5c-12.7,15.56-42.03,34.8-66.27,45.96,12.92,8.59,27.24,15.63,52.54,14.7-1.14-1.83-2.33-3.65-3.56-5.45l21.47-4.46c7.29-17.42,11.57-34.84,6.89-52.26Z" class="cls-1"/>
  <path d="M669.36,220.73v-67.04c0-7.12.13-12.95.4-17.33.25-4.24.94-7.57,2.03-9.9,1.01-2.17,2.69-3.68,5.12-4.61,2.62-1,6.38-1.63,11.17-1.86,4.98-.24,11.41-.36,19.11-.36h40.62v47.68h-37.7c-2.3,0-3.27.22-3.85.87-.52.58-.7,1.5-.7,3.54v3.5h42.25v14.69h-37.7c-2.3,0-3.28.22-3.85.87-.52.59-.7,1.51-.7,3.54v2.72h42.25v23.7h-78.44Z" class="cls-1"/>
  <path d="M612.04,220.73c-7.76,0-14.19-.12-19.11-.36-4.8-.23-8.55-.86-11.17-1.86-2.43-.93-4.1-2.43-5.12-4.6-1.09-2.33-1.77-5.68-2.03-9.98-.24-4.05-.4-11.8-.4-19.75v-30.48c0-7.12.13-12.95.4-17.33.25-4.24.94-7.57,2.03-9.9,1.01-2.17,2.69-3.68,5.12-4.61,2.62-1,6.38-1.63,11.17-1.86,4.98-.24,11.41-.36,19.11-.36h20.86c8.53,0,23.06.42,25.52,1.04,2.49.64,4.22,1.74,5.3,3.37,1.14,1.72,1.86,4.39,2.16,7.93.29,3.46.45,8.06.48,13.69h-53.42v53.43c0,2.07.24,3.06.89,3.65.52.47,1.31.75,3.81.75h3.29v-53.44c25.18.71,45.43,19.29,45.43,42.02v28.65h-54.32Z" class="cls-1"/>
  <path d="M526.25,218.23v-23.02c0-4.58-4.04-8.3-9.02-8.3h-1.5v31.31h-35.49v-98.6h76.79c7.39,0,13.45,6.01,13.5,13.4l.18,25.15c.03,3.62-1.36,7.04-3.92,9.61s-5.96,3.99-9.58,3.99h-3.69c-1.57,0-2.93.9-3.46,2.3-.5,1.32-.13,2.73.96,3.69l.27.24c12,10.53,19.08,25.15,19.51,40.22h-44.56ZM515.73,164.91h10.52v-8.51c0-4.58-4.04-8.3-9.02-8.3h-1.5v16.81Z" class="cls-1"/>
  <path d="M254.98,160.62c13.38,2.43,42.96-.72,55.97-6.16,6.06-.62,56.98-24.38,72.29-45.68l-9.54-2.18c-3.72-.85-6.88-3.25-8.77-6.56-12.92-22.62-35.7-30.07-68.6-18.25-35.59,12.78-44.17,36.44-39.61,58.49.86,4.13.92,8.39,0,12.51l-1.74,7.83Z" class="cls-1"/>
  <path d="M263.74,164.75c-10.68,18.69-17.73,33.36-20.95,43.83,3.99,12.09,29.5,9.63,40.67,5.65,6.1-2.17,16.5-7.52,22.86-17.12-.43-10.86-.9-19.29-3.01-30.64-14.24,2.21-28.02,2.95-39.56-1.73Z" class="cls-1"/>
</svg>