<svg width="25" height="24" viewBox="0 0 25 24" fill="none" xmlns="http://www.w3.org/2000/svg">
<path d="M20.0155 17.1928C17.2942 17.2787 12.1335 15.1466 11.0618 13.782C10.5682 14.0017 10.0905 14.2008 9.63507 14.3711C9.60322 14.8743 10.9472 18.1211 11.0777 19.715C10.3819 21.4124 8.52521 22.5924 6.67969 22.4936L7.27204 24L22.6254 22.387C22.0999 20.5812 21.3929 18.8408 20.4805 17.1737C20.342 17.1848 20.1875 17.1912 20.0155 17.1912V17.1928Z" fill="#5D5BF7"/>
<path d="M23.7224 6.06714L21.9597 6.30599C19.9374 8.78367 15.2671 11.8473 11.4072 13.6244C13.4645 14.9922 15.7448 16.1132 19.7734 15.9651C19.5918 15.6737 19.4024 15.3839 19.2065 15.0973L22.6253 14.3871C23.7861 11.6132 24.4676 8.8394 23.7224 6.06555V6.06714Z" fill="#5D5BF7"/>
<path d="M1.94092 13.438C4.07147 13.825 8.78161 13.3234 10.8532 12.4572C11.8182 12.3584 19.9264 8.57506 22.3643 5.18339L20.8452 4.83626C20.2528 4.70091 19.7496 4.31875 19.4487 3.79169C17.3914 0.189833 13.764 -0.996456 8.52524 0.885682C2.8581 2.92068 1.49188 6.68815 2.21799 10.1992C2.35493 10.8569 2.36448 11.5352 2.21799 12.1913L1.94092 13.438Z" fill="#5D5BF7"/>
<path d="M3.33595 14.0957C1.63533 17.0718 0.512733 19.4077 0 21.0749C0.635343 23 4.6974 22.6083 6.47604 21.9746C7.44737 21.629 9.1034 20.7771 10.1161 19.2485C10.0477 17.5192 9.97282 16.1769 9.63683 14.3696C7.36934 14.7215 5.1751 14.8393 3.33754 14.0941L3.33595 14.0957Z" fill="#5D5BF7"/>
</svg>
