<svg width="154" height="117" viewBox="0 0 154 117" fill="none" xmlns="http://www.w3.org/2000/svg">
<path d="M31.4933 10.7345C32.8191 5.56397 37.4789 1.94824 42.8167 1.94824H130.581C135.919 1.94824 140.579 5.56397 141.904 10.7345L151.372 47.6581C151.764 49.1869 151.842 50.7792 151.602 52.3391L146.102 88.0897C145.225 93.7923 140.318 98.0018 134.549 98.0018H38.8492C33.0795 98.0018 28.1728 93.7923 27.2954 88.0897L21.7953 52.3391C21.5554 50.7792 21.6337 49.1869 22.0257 47.6581L31.4933 10.7345Z" fill="white" stroke="#E5E5E7" stroke-width="3.89655" stroke-linejoin="round"/>
<path d="M22.6641 49.975H54.9898L63.8078 62.3202C66.0021 65.3922 69.5449 67.2154 73.3201 67.2154H101.311C105.086 67.2154 108.629 65.3922 110.823 62.3202L119.641 49.975H151.967" stroke="#E5E5E7" stroke-width="3.89655" stroke-linejoin="round"/>
<path d="M126.934 26.5773H46.4669C42.1629 26.5773 38.6738 30.0664 38.6738 34.3704V46.7952L38.8139 45.5006C39.4562 39.566 44.4665 35.0686 50.4357 35.0686H122.819C128.429 35.0686 133.248 39.0536 134.301 44.5635L134.727 46.7952V34.3704C134.727 30.0664 131.238 26.5773 126.934 26.5773Z" fill="#E5E5E7" stroke="#E5E5E7" stroke-width="3.89655" stroke-linejoin="round"/>
<path d="M134.727 48.7434V46.6848C134.727 42.3808 131.238 38.8917 126.934 38.8917H46.4669C42.1629 38.8917 38.6738 42.3808 38.6738 46.6848V48.7434" stroke="#E5E5E7" stroke-width="3.89655" stroke-linejoin="round"/>
<path d="M134.727 36.4289V22.0558C134.727 17.7518 131.238 14.2627 126.934 14.2627H46.4669C42.1629 14.2627 38.6738 17.7518 38.6738 22.0558V36.4289" stroke="#E5E5E7" stroke-width="3.89655" stroke-linejoin="round"/>
<circle cx="27.2768" cy="89.6207" r="25.3276" fill="white" stroke="#E5E5E7" stroke-width="3.89655"/>
<path d="M24.3535 76.9568C24.3535 75.3428 25.6619 74.0344 27.2759 74.0344C28.8899 74.0344 30.1983 75.3428 30.1983 76.9568V88.6465C30.1983 90.2605 28.8899 91.5689 27.2759 91.5689C25.6619 91.5689 24.3535 90.2605 24.3535 88.6465V76.9568Z" fill="#E5E5E7"/>
<path d="M24.3535 102.284C24.3535 103.898 25.6619 105.207 27.2759 105.207C28.8899 105.207 30.1983 103.898 30.1983 102.284C30.1983 100.67 28.8899 99.362 27.2759 99.362C25.6619 99.362 24.3535 100.67 24.3535 102.284Z" fill="#E5E5E7"/>
</svg>
