<svg width="795" height="250" viewBox="0 0 795 250" fill="none" xmlns="http://www.w3.org/2000/svg">
<path d="M109.359 143.132C119.954 157.304 170.974 179.447 197.877 178.554V178.537C199.577 178.537 201.104 178.471 202.474 178.355C211.494 195.67 218.483 213.745 223.678 232.498L71.8936 249.25L66.0381 233.605C84.2827 234.631 102.637 222.377 109.517 204.749C108.429 190.806 98.8326 164.685 96.0205 153.67C98.7086 170.27 99.3863 183.388 100.009 199.904C89.9969 215.78 73.625 224.626 64.0225 228.215C46.4388 234.797 6.28128 238.865 0 218.872C5.06889 201.558 16.1672 177.298 32.9795 146.391L32.9951 146.374C51.1613 154.113 72.854 152.889 95.2705 149.234C95.271 149.237 95.271 149.24 95.2715 149.243C99.7685 147.475 104.486 145.411 109.359 143.132ZM795 150.623H735.652C732.032 150.623 730.505 150.987 729.592 152.062C728.773 153.021 728.49 154.543 728.49 157.916V163.703H795V187.996H735.652C732.032 187.996 730.489 188.361 729.592 189.436C728.773 190.411 728.49 191.933 728.49 195.289V199.787H795V238.98H671.521L671.504 238.964V128.1C671.504 116.325 671.709 106.684 672.134 99.4404C672.527 92.4289 673.614 86.9224 675.33 83.0693C676.92 79.4808 679.564 76.9832 683.39 75.4453C687.514 73.7917 693.433 72.7505 700.974 72.3701C708.813 71.9732 718.935 71.7744 731.057 71.7744H795V150.623ZM614.11 71.791C627.538 71.791 650.41 72.4855 654.283 73.5107C658.203 74.5691 660.927 76.3885 662.627 79.084C664.421 81.9284 665.554 86.3442 666.026 92.1982C666.483 97.92 666.735 105.527 666.782 114.837H582.688V203.194C582.688 206.617 583.067 208.255 584.09 209.23C584.908 210.008 586.152 210.471 590.088 210.471H595.267V122.097C634.905 123.271 666.782 153.997 666.782 191.585V238.964H581.272C569.057 238.964 558.934 238.765 551.189 238.368C543.633 237.988 537.73 236.947 533.605 235.293C529.78 233.755 527.152 231.274 525.546 227.686C523.83 223.832 522.759 218.293 522.35 211.182C521.972 204.484 521.721 191.668 521.721 178.521V128.116C521.721 116.342 521.925 106.701 522.35 99.458C522.743 92.4463 523.83 86.9391 525.546 83.0859C527.136 79.4976 529.78 77.0008 533.605 75.4629C537.73 73.8092 543.649 72.7671 551.189 72.3867C559.029 71.9898 569.151 71.791 581.272 71.791H614.11ZM366.678 234.829H309.172L308.416 184.771H306.087C301.648 184.771 297.397 186.574 294.406 189.732C291.793 192.494 290.329 196.05 290.266 199.787C289.368 203.739 284.268 226.561 283.024 234.846H229.25L228.227 231.125C225.818 222.443 223.016 213.96 219.884 205.691L227.393 159.321C233.233 128.91 243.355 108.205 259.223 94.2314C276.381 79.1166 300.97 71.7744 334.391 71.7744H368.456L366.678 234.829ZM446.222 234.83L446.206 234.813H446.222V234.83ZM494.676 71.7588C506.309 71.7589 515.848 81.6973 515.927 93.918L516.211 135.509C516.258 141.495 514.07 147.15 510.04 151.4C506.01 155.65 500.658 157.999 494.959 157.999H489.15C486.679 157.999 484.537 159.488 483.703 161.803C482.916 163.986 483.499 166.317 485.215 167.904L485.64 168.302C504.53 185.715 515.676 209.892 516.353 234.813H446.222V196.762C446.222 189.188 439.862 183.036 432.022 183.036H429.661V234.813H373.793V71.7588H494.676ZM234.523 62.9941C241.891 91.8014 235.154 120.609 223.678 149.416L189.88 156.792C191.816 159.769 193.689 162.779 195.483 165.805C155.656 167.343 133.114 155.7 112.775 141.495C150.934 123.04 197.105 91.2228 217.098 65.4912L234.523 63.0107V62.9941ZM306.779 118.276C298.2 118.442 291.21 125.917 291.179 134.93L291.147 147.232H309.188V118.227L306.779 118.276ZM429.661 146.654H446.222V132.582C446.222 125.008 439.862 118.856 432.022 118.856H429.661V146.654ZM84.2822 9.19824C136.073 -10.3485 171.934 1.97141 192.272 39.3779C195.248 44.8517 200.222 48.8209 206.078 50.2266L221.096 53.832C196.995 89.0558 116.836 128.348 107.297 129.373C86.8164 138.369 40.252 143.578 19.1895 139.56L21.9287 126.611C23.377 119.798 23.2825 112.753 21.9287 105.923C14.7505 69.4589 28.257 30.3325 84.2822 9.19824Z" fill="#5D5BF7"/>
</svg>
