<?xml version="1.0" encoding="UTF-8"?>
<svg id="Layer_1" data-name="Layer 1" xmlns="http://www.w3.org/2000/svg" viewBox="0 0 856 310">
  <defs>
    <style>
      .cls-1 {
        fill: #5900cc;
      }
    </style>
  </defs>
  <path class="cls-1" d="M204.32,187.34l8.92-10.68c1.03-1.23,2.85-1.43,4.13-.45,8.12,6.22,16.71,10.07,26.93,10.07,8.8,0,14.1-3.49,14.1-9.21v-.28c0-5.45-3.35-8.24-19.69-12.43-19.69-5.03-32.39-10.47-32.39-29.88v-.28c0-17.73,14.24-29.46,34.21-29.46,13.14,0,24.5,3.81,33.97,10.65,1.32.95,1.63,2.8.7,4.14l-7.87,11.41c-.92,1.33-2.73,1.69-4.09.81-7.82-5.03-15.52-8.02-22.99-8.02-8.24,0-12.57,3.77-12.57,8.52v.28c0,6.42,4.19,8.52,21.08,12.84,19.83,5.17,30.99,12.29,30.99,29.32v.28c0,19.41-14.8,30.3-35.88,30.3-13.84,0-27.8-4.52-39.14-13.67-1.3-1.05-1.48-2.98-.41-4.26Z"/>
  <path class="cls-1" d="M322.09,105.44h15.86c1.2,0,2.29.72,2.76,1.83l39.33,92.43c.84,1.98-.61,4.17-2.76,4.17h-15.92c-1.22,0-2.32-.74-2.78-1.87l-7.41-18.18c-.46-1.13-1.56-1.87-2.78-1.87h-37.29c-1.22,0-2.32.74-2.78,1.87l-7.41,18.18c-.46,1.13-1.56,1.87-2.78,1.87h-15.37c-2.15,0-3.6-2.2-2.76-4.17l39.33-92.43c.47-1.11,1.56-1.83,2.76-1.83ZM341.03,158.82l-8.51-20.78c-1.02-2.48-4.53-2.48-5.55,0l-8.51,20.78c-.81,1.97.64,4.14,2.78,4.14h17.03c2.13,0,3.58-2.16,2.78-4.14Z"/>
  <path class="cls-1" d="M387.12,109.13c0-1.66,1.34-3,3-3h41.68c12.43,0,22.06,3.49,28.48,9.91,5.45,5.45,8.38,13.12,8.38,22.34v.28c0,14.37-7.07,23.88-17.72,28.94-1.65.78-2.18,2.87-1.15,4.38l18.59,27.19c1.36,1.99-.06,4.69-2.48,4.69h-17.84c-1,0-1.94-.5-2.49-1.33l-19.16-28.61c-.56-.83-1.49-1.33-2.49-1.33h-12.29c-1.66,0-3,1.34-3,3v25.27c0,1.66-1.34,3-3,3h-15.5c-1.66,0-3-1.34-3-3v-91.73ZM430.4,153.6c10.47,0,16.47-5.58,16.47-13.82v-.28c0-9.21-6.42-13.96-16.89-13.96h-18.36c-1.66,0-3,1.34-3,3v22.06c0,1.66,1.34,3,3,3h18.78Z"/>
  <path class="cls-1" d="M473.95,155.28v-.28c0-27.78,21.64-50.54,51.24-50.54,16.22,0,26.51,4.04,36,11.45,1.33,1.04,1.54,2.98.46,4.28l-9.72,11.73c-1.04,1.25-2.87,1.44-4.16.44-6.67-5.15-13.11-8.08-23.27-8.08-15.64,0-28.06,13.82-28.06,30.44v.28c0,17.87,12.29,30.99,29.6,30.99,7.14,0,13.59-1.63,18.8-4.9.89-.56,1.44-1.52,1.44-2.57v-9.36c0-1.66-1.34-3-3-3h-15.64c-1.66,0-3-1.34-3-3v-12.57c0-1.66,1.34-3,3-3h36.44c1.66,0,3,1.34,3,3v38.03c0,.9-.39,1.75-1.09,2.32-9.95,8.1-23.42,14.6-40.66,14.6-30.44,0-51.38-21.36-51.38-50.26Z"/>
  <path class="cls-1" d="M580.97,106.13h67.72c1.66,0,3,1.34,3,3v13.13c0,1.66-1.34,3-3,3h-46.36c-1.66,0-3,1.34-3,3v13.83c0,1.66,1.34,3,3,3h40.07c1.66,0,3,1.34,3,3v13.13c0,1.66-1.34,3-3,3h-40.07c-1.66,0-3,1.34-3,3v14.52c0,1.66,1.34,3,3,3h47.05c1.66,0,3,1.34,3,3v13.13c0,1.66-1.34,3-3,3h-68.42c-1.66,0-3-1.34-3-3v-91.73c0-1.66,1.34-3,3-3Z"/>
</svg>