<?xml version="1.0" encoding="UTF-8"?>
<svg id="Layer_1" data-name="Layer 1" xmlns="http://www.w3.org/2000/svg" viewBox="0 0 1186 310">
  <defs>
    <style>
      .cls-1 {
        fill: #5900cc;
      }
    </style>
  </defs>
  <g>
    <path class="cls-1" d="M492.6,195.7l8.92-10.68c1.03-1.23,2.85-1.43,4.13-.45,8.12,6.22,16.71,10.07,26.93,10.07,8.8,0,14.1-3.49,14.1-9.21v-.28c0-5.45-3.35-8.24-19.69-12.43-19.69-5.03-32.39-10.47-32.39-29.88v-.28c0-17.73,14.24-29.46,34.21-29.46,13.14,0,24.5,3.81,33.97,10.65,1.32.95,1.63,2.8.7,4.14l-7.87,11.41c-.92,1.33-2.73,1.69-4.09.81-7.82-5.03-15.52-8.02-22.99-8.02-8.24,0-12.57,3.77-12.57,8.52v.28c0,6.42,4.19,8.52,21.08,12.84,19.83,5.17,30.99,12.29,30.99,29.32v.28c0,19.41-14.8,30.3-35.88,30.3-13.84,0-27.8-4.52-39.14-13.67-1.3-1.05-1.48-2.98-.41-4.26Z"/>
    <path class="cls-1" d="M610.37,113.8h15.86c1.2,0,2.29.72,2.76,1.83l39.33,92.43c.84,1.98-.61,4.17-2.76,4.17h-15.92c-1.22,0-2.32-.74-2.78-1.87l-7.41-18.18c-.46-1.13-1.56-1.87-2.78-1.87h-37.29c-1.22,0-2.32.74-2.78,1.87l-7.41,18.18c-.46,1.13-1.56,1.87-2.78,1.87h-15.37c-2.15,0-3.6-2.2-2.76-4.17l39.33-92.43c.47-1.11,1.56-1.83,2.76-1.83ZM629.31,167.19l-8.51-20.78c-1.02-2.48-4.53-2.48-5.55,0l-8.51,20.78c-.81,1.97.64,4.14,2.78,4.14h17.03c2.13,0,3.58-2.16,2.78-4.14Z"/>
    <path class="cls-1" d="M675.4,117.5c0-1.66,1.34-3,3-3h41.68c12.43,0,22.06,3.49,28.48,9.91,5.45,5.45,8.38,13.12,8.38,22.34v.28c0,14.37-7.07,23.88-17.72,28.94-1.65.78-2.18,2.87-1.15,4.38l18.59,27.19c1.36,1.99-.06,4.69-2.48,4.69h-17.84c-1,0-1.94-.5-2.49-1.33l-19.16-28.61c-.56-.83-1.49-1.33-2.49-1.33h-12.29c-1.66,0-3,1.34-3,3v25.27c0,1.66-1.34,3-3,3h-15.5c-1.66,0-3-1.34-3-3v-91.73ZM718.68,161.97c10.47,0,16.47-5.58,16.47-13.82v-.28c0-9.21-6.42-13.96-16.89-13.96h-18.36c-1.66,0-3,1.34-3,3v22.06c0,1.66,1.34,3,3,3h18.78Z"/>
    <path class="cls-1" d="M762.23,163.65v-.28c0-27.78,21.64-50.54,51.24-50.54,16.22,0,26.51,4.04,36,11.45,1.33,1.04,1.54,2.98.46,4.28l-9.72,11.73c-1.04,1.25-2.87,1.44-4.16.44-6.67-5.15-13.11-8.08-23.27-8.08-15.64,0-28.06,13.82-28.06,30.44v.28c0,17.87,12.29,30.99,29.6,30.99,7.14,0,13.59-1.63,18.8-4.9.89-.56,1.44-1.52,1.44-2.57v-9.36c0-1.66-1.34-3-3-3h-15.64c-1.66,0-3-1.34-3-3v-12.57c0-1.66,1.34-3,3-3h36.44c1.66,0,3,1.34,3,3v38.03c0,.9-.39,1.75-1.09,2.32-9.95,8.1-23.42,14.6-40.66,14.6-30.44,0-51.38-21.36-51.38-50.26Z"/>
    <path class="cls-1" d="M869.25,114.5h67.72c1.66,0,3,1.34,3,3v13.13c0,1.66-1.34,3-3,3h-46.36c-1.66,0-3,1.34-3,3v13.83c0,1.66,1.34,3,3,3h40.07c1.66,0,3,1.34,3,3v13.13c0,1.66-1.34,3-3,3h-40.07c-1.66,0-3,1.34-3,3v14.52c0,1.66,1.34,3,3,3h47.05c1.66,0,3,1.34,3,3v13.13c0,1.66-1.34,3-3,3h-68.42c-1.66,0-3-1.34-3-3v-91.73c0-1.66,1.34-3,3-3Z"/>
  </g>
  <g>
    <path class="cls-1" d="M415.07,128.77c21.78,10.82,36.25,31.11,38.98,56.3.18,1.65-1.68,2.59-2.67,1.34-3.67-4.67-7.57-8.18-11.84-9.71-1-.36-2.03.46-2.02,1.62.08,14.41-5.38,23.14-14.2,28.42-1.24.74-2.65-.56-2.19-2.04,4.67-15.09,1.39-30.59-6.61-46.33-.6-1.18.23-2.61,1.45-2.53,2.06.13,4.11.9,6.17,2.3,1.09.74,2.49-.29,2.3-1.7-1.24-9.17-5.86-17.51-11.19-25.07-.98-1.39.38-3.32,1.83-2.6Z"/>
    <path class="cls-1" d="M337.78,121.2c.73-20.1,10.15-31.29,30.28-28.11.33.05.64.22.87.48h0c.85.94.44,2.55-.73,2.86-13.14,3.55-20.66,9.24-26.45,24.36-.08.2-.18.38-.32.53l-1.04,1.16c-.99,1.1-2.68.27-2.62-1.29Z"/>
    <path class="cls-1" d="M328.18,165.18c3.88-1.14,11.36-1.33,15.36-.12.8.24,1.26,1.18,1.04,2.07l-.46,1.9c-.1.4-.32.75-.63.98-1.26.91-4.71,3.22-7.54,3.22s-6.47-2.2-7.99-3.17c-.43-.28-.71-.77-.76-1.32l-.14-1.77c-.07-.82.4-1.59,1.12-1.8Z"/>
    <path class="cls-1" d="M398.3,139.01c4.28,1.59,8.39,3.71,12.34,6.38,1.37.92,2.93-.76,2.14-2.31-17.25-33.3-43.8-31.15-56.79-27.61-5.12,1.4-9.49,5.2-11.77,10.48-4.32,10.01-5.44,20.98-3.36,32.91.15.86.88,1.44,1.66,1.36,11.07-1.13,20.55.25,29.03,3.23,1.64.58,1.27,3.3-.45,3.32-4.81.05-9.37.48-13.54,1.49-1.55.38-1.65,2.76-.14,3.29,16.34,5.73,22.51,19.96,25.66,36.72.15.81.8,1.4,1.54,1.36,5.45-.25,17.05,3.6,21.62,7.46.73.62,1.79.35,2.26-.52,4.11-7.55,7.24-15.21,8.22-23.13,0-.06.01-.13.02-.19,1.3-27.39-11.51-43.67-19.9-51.31-1.32-1.2-.14-3.53,1.47-2.93ZM359.69,158.14c-2.09-.35-4.27-.55-6.54-.59-.51,0-.99-.28-1.27-.76-1.09-1.9-1.32-4.52.03-7.26.09-.17.2-.34.33-.47,4.24-4.32,9.67-1.4,10.21,3.51.21,1.9-.35,3.7-1.41,5.02-.34.43-.86.62-1.37.54Z"/>
    <path class="cls-1" d="M256.83,128.77c-21.78,10.82-36.25,31.11-38.98,56.3-.18,1.65,1.68,2.59,2.67,1.34,3.67-4.67,7.57-8.18,11.84-9.71,1-.36,2.03.46,2.02,1.62-.08,14.41,5.38,23.14,14.2,28.42,1.24.74,2.65-.56,2.19-2.04-4.67-15.09-1.39-30.59,6.61-46.33.6-1.18-.23-2.61-1.45-2.53-2.06.13-4.11.9-6.17,2.3-1.09.74-2.49-.29-2.3-1.7,1.24-9.17,5.86-17.51,11.19-25.07.98-1.39-.38-3.32-1.83-2.6Z"/>
    <path class="cls-1" d="M334.12,121.2c-.73-20.1-10.15-31.29-30.28-28.11-.33.05-.64.22-.87.48h0c-.85.94-.44,2.55.73,2.86,13.14,3.55,20.66,9.24,26.45,24.36.08.2.18.38.32.53l1.04,1.16c.99,1.1,2.68.27,2.62-1.29Z"/>
    <path class="cls-1" d="M315.91,115.48c-12.99-3.55-39.54-5.7-56.79,27.61-.8,1.54.77,3.23,2.14,2.31,3.94-2.66,8.05-4.79,12.34-6.38,1.62-.6,2.79,1.73,1.47,2.93-8.39,7.65-21.2,23.92-19.9,51.31,0,.06,0,.13.02.19.96,7.81,4.02,15.37,8.04,22.81.5.93,1.66,1.17,2.38.43,4.05-4.13,15.74-7.43,21.67-7.05.75.05,1.4-.55,1.55-1.36,3.15-16.76,9.32-30.99,25.66-36.72,1.51-.53,1.41-2.91-.14-3.29-4.16-1.02-8.72-1.44-13.54-1.49-1.72-.02-2.09-2.74-.45-3.32,8.47-2.98,17.96-4.36,29.03-3.23.78.08,1.51-.5,1.66-1.36,2.08-11.93.96-22.9-3.36-32.91-2.28-5.29-6.65-9.08-11.77-10.48ZM319.97,149.54c1.35,2.74,1.12,5.36.03,7.26-.27.48-.76.75-1.27.76-2.27.03-4.44.24-6.54.59-.51.09-1.03-.11-1.37-.54-1.06-1.32-1.62-3.13-1.41-5.02.54-4.91,5.97-7.84,10.21-3.52.13.13.25.3.33.47Z"/>
    <path class="cls-1" d="M344.66,180.42c-4.23-.4-8.51-.61-12.84-.61-5.46,0-10.85.33-16.16.97-.8.1-1.4.88-1.37,1.77.21,6.47,1.42,9.12,7.62,9.12,3.18,0,9.01-6.44,10.43-8.07.21-.24.48-.41.77-.48,2.85-.66,6.83-.96,10.01-1.11.61-.03,1.15-.46,1.36-1.1l.17-.49Z"/>
  </g>
</svg>